<?xml version="1.0" encoding="utf-8"?>
<!-- Generator: Adobe Illustrator 16.0.4, SVG Export Plug-In . SVG Version: 6.00 Build 0)  -->
<!DOCTYPE svg PUBLIC "-//W3C//DTD SVG 1.1//EN" "http://www.w3.org/Graphics/SVG/1.1/DTD/svg11.dtd">
<svg version="1.1" id="Livello_1" xmlns="http://www.w3.org/2000/svg" xmlns:xlink="http://www.w3.org/1999/xlink" x="0px" y="0px"
	 width="841.89px" height="595.28px" viewBox="0 0 841.89 595.28" enable-background="new 0 0 841.89 595.28" xml:space="preserve">
<g>
	<path fill="#597F63" d="M308.954,339.694v-112.25h14.807v98.995h22.038v13.256H308.954z"/>
	<path fill="#597F63" d="M354.574,339.694v-112.25h14.807v112.25H354.574z"/>
	<path fill="#597F63" d="M412.936,339.694h-17.045l-18.248-112.25h14.632l9.985,70.243c1.206,8.092,2.066,21.864,2.066,21.864h0.345
		c0,0,0.86-13.945,2.066-21.864l9.985-70.243h14.635L412.936,339.694z"/>
	<path fill="#597F63" d="M439.614,339.694v-112.25h36.845v13.6h-22.037v33.917h19.452v13.772h-19.452v37.705h22.037v13.256H439.614z
		"/>
	<path fill="#97B186" d="M516.913,339.694v-65.078c0-7.92-3.101-11.707-8.438-11.707c-5.166,0-8.437,3.787-8.437,11.707v65.078
		h-14.635V251.03h14.119v5.508c1.55-3.958,7.402-6.886,12.395-6.886c13.948,0,19.631,8.609,19.631,24.104v65.938H516.913z"/>
	<path fill="#97B186" d="M565.627,341.072c-14.805,0-23.758-8.78-23.758-24.103v-43.213c0-15.323,8.782-24.104,23.588-24.104
		c14.805,0,23.757,8.781,23.757,24.104v25.653h-32.711v16.697c0,7.921,3.617,11.709,9.124,11.709c5.511,0,8.952-3.788,8.952-11.709
		v-4.991h14.635v5.854C589.214,332.292,580.437,341.072,565.627,341.072z M574.409,274.616c0-7.92-3.445-11.707-8.952-11.707
		c-5.512,0-8.954,3.787-8.954,11.707V287.7h17.906V274.616z"/>
	<path fill="#97B186" d="M622.091,341.072c-14.805,0-22.723-8.953-22.723-24.103v-86.944h14.635v21.004h27.374v13.256h-27.374v51.82
		c0,7.921,2.751,11.709,8.088,11.709c5.167,0,8.093-3.788,8.093-11.709v-13.943h14.635v14.807
		C644.818,332.119,636.9,341.072,622.091,341.072z"/>
</g>
<polygon fill="#597F63" points="256.136,304.844 256.136,304.851 216.049,304.851 216.049,268.182 216.049,264.771 216.049,229.501 
	180.783,229.501 180.783,340.118 291.396,340.118 291.396,304.844 "/>
<polygon fill="#97B186" points="223.548,226.298 223.548,261.567 223.559,261.567 223.559,297.343 255.157,297.343 255.157,261.818 
	263.032,261.818 263.032,297.343 294.602,297.343 294.602,226.298 "/>
</svg>
